<?xml version="1.0" encoding="UTF-8"?>
<svg xmlns="http://www.w3.org/2000/svg" xmlns:xlink="http://www.w3.org/1999/xlink" width="1920" height="1080" viewBox="0 0 1920 1080">
<defs>
<g>
<g id="glyph-0-0">
<path d="M 2.054688 0 L 0.261719 0 L 0.261719 -0.164062 C 0.304688 -0.167969 0.375 -0.175781 0.46875 -0.1875 C 0.566406 -0.199219 0.628906 -0.210938 0.664062 -0.222656 C 0.707031 -0.234375 0.742188 -0.261719 0.765625 -0.296875 C 0.789062 -0.328125 0.804688 -0.378906 0.804688 -0.4375 L 0.804688 -1.8125 L 0.253906 -1.8125 L 0.253906 -2.019531 L 0.375 -2.019531 C 0.5 -2.019531 0.609375 -2.035156 0.699219 -2.0625 C 0.792969 -2.089844 0.867188 -2.121094 0.929688 -2.160156 C 0.992188 -2.203125 1.042969 -2.242188 1.082031 -2.285156 C 1.121094 -2.332031 1.152344 -2.367188 1.175781 -2.402344 L 1.558594 -2.402344 C 1.554688 -2.308594 1.550781 -2.199219 1.546875 -2.074219 C 1.539062 -1.945312 1.539062 -1.832031 1.539062 -1.734375 L 1.539062 -0.460938 C 1.539062 -0.410156 1.550781 -0.363281 1.570312 -0.328125 C 1.59375 -0.289062 1.625 -0.257812 1.667969 -0.238281 C 1.707031 -0.222656 1.769531 -0.207031 1.859375 -0.191406 C 1.945312 -0.175781 2.011719 -0.167969 2.054688 -0.164062 Z "/>
</g>
<g id="glyph-0-1">
<path d="M 2.570312 -2.023438 C 2.679688 -1.90625 2.761719 -1.773438 2.8125 -1.625 C 2.867188 -1.476562 2.890625 -1.324219 2.890625 -1.164062 C 2.890625 -0.976562 2.859375 -0.804688 2.792969 -0.652344 C 2.726562 -0.5 2.636719 -0.371094 2.523438 -0.265625 C 2.402344 -0.15625 2.265625 -0.0703125 2.105469 -0.0117188 C 1.945312 0.0429688 1.761719 0.0742188 1.554688 0.0742188 C 1.335938 0.0742188 1.144531 0.0390625 0.976562 -0.0273438 C 0.808594 -0.0976562 0.671875 -0.1875 0.558594 -0.296875 C 0.449219 -0.40625 0.367188 -0.535156 0.308594 -0.6875 C 0.253906 -0.835938 0.222656 -0.996094 0.222656 -1.164062 C 0.222656 -1.335938 0.25 -1.492188 0.304688 -1.636719 C 0.359375 -1.78125 0.441406 -1.910156 0.554688 -2.027344 C 0.664062 -2.144531 0.804688 -2.234375 0.972656 -2.304688 C 1.144531 -2.371094 1.339844 -2.40625 1.558594 -2.40625 C 1.785156 -2.40625 1.984375 -2.371094 2.152344 -2.300781 C 2.320312 -2.230469 2.460938 -2.136719 2.570312 -2.023438 M 1.957031 -0.40625 C 2 -0.503906 2.027344 -0.609375 2.046875 -0.730469 C 2.066406 -0.847656 2.074219 -0.996094 2.074219 -1.164062 C 2.074219 -1.320312 2.066406 -1.457031 2.050781 -1.578125 C 2.03125 -1.703125 2.003906 -1.8125 1.964844 -1.90625 C 1.925781 -2.003906 1.871094 -2.082031 1.804688 -2.136719 C 1.738281 -2.1875 1.65625 -2.214844 1.558594 -2.214844 C 1.460938 -2.214844 1.378906 -2.1875 1.3125 -2.136719 C 1.246094 -2.082031 1.191406 -2.007812 1.148438 -1.910156 C 1.113281 -1.824219 1.085938 -1.714844 1.066406 -1.585938 C 1.050781 -1.460938 1.042969 -1.320312 1.042969 -1.164062 C 1.042969 -1.003906 1.050781 -0.867188 1.0625 -0.753906 C 1.078125 -0.640625 1.105469 -0.535156 1.148438 -0.429688 C 1.183594 -0.335938 1.234375 -0.257812 1.304688 -0.203125 C 1.371094 -0.144531 1.457031 -0.113281 1.554688 -0.113281 C 1.648438 -0.113281 1.730469 -0.140625 1.796875 -0.191406 C 1.863281 -0.246094 1.917969 -0.316406 1.957031 -0.40625 Z "/>
</g>
<g id="glyph-0-2">
<path d="M 1.886719 -2.355469 C 1.886719 -2.113281 1.804688 -1.917969 1.644531 -1.769531 C 1.480469 -1.621094 1.28125 -1.546875 1.042969 -1.546875 C 0.804688 -1.546875 0.601562 -1.621094 0.441406 -1.769531 C 0.277344 -1.917969 0.199219 -2.113281 0.199219 -2.355469 C 0.199219 -2.597656 0.277344 -2.792969 0.441406 -2.945312 C 0.601562 -3.09375 0.804688 -3.167969 1.042969 -3.167969 C 1.28125 -3.167969 1.480469 -3.09375 1.644531 -2.945312 C 1.804688 -2.792969 1.886719 -2.597656 1.886719 -2.355469 M 1.3125 -2.351562 C 1.3125 -2.550781 1.292969 -2.710938 1.253906 -2.832031 C 1.214844 -2.949219 1.144531 -3.007812 1.039062 -3.007812 C 0.945312 -3.007812 0.878906 -2.953125 0.835938 -2.839844 C 0.792969 -2.730469 0.773438 -2.574219 0.773438 -2.375 C 0.773438 -2.164062 0.792969 -2 0.828125 -1.882812 C 0.867188 -1.761719 0.941406 -1.703125 1.046875 -1.703125 C 1.140625 -1.703125 1.207031 -1.757812 1.25 -1.871094 C 1.292969 -1.984375 1.3125 -2.144531 1.3125 -2.351562 M 3.710938 -0.734375 C 3.710938 -0.492188 3.628906 -0.296875 3.464844 -0.148438 C 3.304688 0 3.105469 0.0742188 2.867188 0.0742188 C 2.625 0.0742188 2.425781 0 2.261719 -0.148438 C 2.101562 -0.296875 2.019531 -0.492188 2.019531 -0.734375 C 2.019531 -0.976562 2.101562 -1.171875 2.261719 -1.324219 C 2.425781 -1.472656 2.625 -1.546875 2.863281 -1.546875 C 3.101562 -1.546875 3.304688 -1.472656 3.464844 -1.324219 C 3.628906 -1.171875 3.710938 -0.976562 3.710938 -0.734375 M 3.136719 -0.730469 C 3.136719 -0.929688 3.117188 -1.089844 3.078125 -1.210938 C 3.039062 -1.328125 2.964844 -1.390625 2.863281 -1.390625 C 2.769531 -1.390625 2.699219 -1.332031 2.65625 -1.21875 C 2.617188 -1.109375 2.59375 -0.953125 2.59375 -0.753906 C 2.59375 -0.542969 2.613281 -0.378906 2.652344 -0.261719 C 2.691406 -0.140625 2.765625 -0.0820312 2.871094 -0.0820312 C 2.964844 -0.0820312 3.03125 -0.136719 3.074219 -0.25 C 3.113281 -0.363281 3.136719 -0.523438 3.136719 -0.730469 M 3.414062 -3.097656 L 0.847656 0 L 0.496094 0 L 3.054688 -3.097656 Z "/>
</g>
</g>
</defs>
<g fill="rgb(100%, 100%, 100%)" fill-opacity="1">
<use xlink:href="#glyph-0-0" x="30" y="24.074219"/>
<use xlink:href="#glyph-0-1" x="32" y="24.074219"/>
<use xlink:href="#glyph-0-1" x="35" y="24.074219"/>
<use xlink:href="#glyph-0-2" x="38" y="24.074219"/>
</g>
</svg>
