<?xml version="1.0" encoding="UTF-8"?>
<svg xmlns="http://www.w3.org/2000/svg" xmlns:xlink="http://www.w3.org/1999/xlink" width="854" height="480" viewBox="0 0 854 480">
<defs>
<g>
<g id="glyph-0-0">
<path d="M 1.871094 -1.644531 C 1.847656 -1.644531 1.816406 -1.640625 1.769531 -1.632812 C 1.726562 -1.621094 1.691406 -1.609375 1.664062 -1.589844 C 1.636719 -1.570312 1.617188 -1.53125 1.605469 -1.476562 C 1.597656 -1.414062 1.589844 -1.34375 1.589844 -1.257812 L 1.589844 -0.507812 C 1.589844 -0.410156 1.570312 -0.328125 1.53125 -0.257812 C 1.492188 -0.1875 1.4375 -0.128906 1.375 -0.0820312 C 1.308594 -0.0390625 1.242188 -0.0078125 1.171875 0.0117188 C 1.097656 0.03125 1.03125 0.0429688 0.964844 0.0429688 C 0.863281 0.0429688 0.769531 0.0273438 0.6875 0 C 0.605469 -0.0273438 0.539062 -0.0625 0.480469 -0.109375 C 0.425781 -0.15625 0.386719 -0.210938 0.359375 -0.269531 C 0.332031 -0.328125 0.316406 -0.390625 0.316406 -0.457031 L 0.316406 -1.480469 C 0.316406 -1.507812 0.3125 -1.53125 0.304688 -1.550781 C 0.292969 -1.570312 0.273438 -1.589844 0.246094 -1.605469 C 0.226562 -1.617188 0.199219 -1.625 0.167969 -1.632812 C 0.136719 -1.640625 0.109375 -1.644531 0.0898438 -1.644531 L 0.0898438 -1.730469 L 0.8125 -1.730469 L 0.8125 -1.644531 C 0.789062 -1.644531 0.761719 -1.640625 0.726562 -1.632812 C 0.691406 -1.628906 0.664062 -1.621094 0.648438 -1.617188 C 0.621094 -1.605469 0.601562 -1.589844 0.59375 -1.566406 C 0.585938 -1.542969 0.578125 -1.519531 0.578125 -1.492188 L 0.578125 -0.535156 C 0.578125 -0.492188 0.585938 -0.441406 0.59375 -0.390625 C 0.605469 -0.339844 0.625 -0.292969 0.65625 -0.25 C 0.6875 -0.203125 0.730469 -0.167969 0.785156 -0.140625 C 0.839844 -0.109375 0.914062 -0.0976562 1.007812 -0.0976562 C 1.097656 -0.0976562 1.175781 -0.109375 1.234375 -0.140625 C 1.296875 -0.167969 1.34375 -0.203125 1.378906 -0.25 C 1.410156 -0.296875 1.433594 -0.339844 1.449219 -0.390625 C 1.460938 -0.4375 1.46875 -0.484375 1.46875 -0.535156 L 1.46875 -1.246094 C 1.46875 -1.335938 1.464844 -1.410156 1.449219 -1.464844 C 1.4375 -1.523438 1.417969 -1.558594 1.394531 -1.578125 C 1.363281 -1.597656 1.324219 -1.613281 1.277344 -1.625 C 1.226562 -1.636719 1.1875 -1.644531 1.164062 -1.644531 L 1.164062 -1.730469 L 1.871094 -1.730469 Z "/>
</g>
<g id="glyph-0-1">
<path d="M 1.734375 0 L 1.015625 0 L 1.015625 -0.0859375 C 1.078125 -0.0898438 1.128906 -0.0976562 1.171875 -0.109375 C 1.214844 -0.125 1.234375 -0.136719 1.234375 -0.15625 C 1.234375 -0.164062 1.234375 -0.171875 1.234375 -0.183594 C 1.230469 -0.195312 1.230469 -0.203125 1.226562 -0.210938 L 1.082031 -0.597656 L 0.472656 -0.597656 C 0.453125 -0.542969 0.433594 -0.492188 0.417969 -0.449219 C 0.40625 -0.40625 0.390625 -0.367188 0.378906 -0.332031 C 0.371094 -0.296875 0.363281 -0.269531 0.359375 -0.246094 C 0.355469 -0.226562 0.351562 -0.207031 0.351562 -0.195312 C 0.351562 -0.160156 0.378906 -0.136719 0.429688 -0.117188 C 0.480469 -0.101562 0.539062 -0.0898438 0.601562 -0.0859375 L 0.601562 0 L -0.0507812 0 L -0.0507812 -0.0859375 C -0.0273438 -0.0898438 -0.00390625 -0.09375 0.03125 -0.101562 C 0.0625 -0.109375 0.0859375 -0.117188 0.109375 -0.132812 C 0.140625 -0.152344 0.164062 -0.175781 0.183594 -0.199219 C 0.199219 -0.226562 0.21875 -0.257812 0.234375 -0.300781 C 0.324219 -0.515625 0.417969 -0.761719 0.523438 -1.03125 C 0.628906 -1.304688 0.722656 -1.546875 0.804688 -1.757812 L 0.902344 -1.757812 L 1.480469 -0.261719 C 1.492188 -0.230469 1.503906 -0.203125 1.519531 -0.1875 C 1.535156 -0.164062 1.558594 -0.148438 1.585938 -0.128906 C 1.605469 -0.117188 1.628906 -0.105469 1.660156 -0.0976562 C 1.6875 -0.0898438 1.714844 -0.0859375 1.734375 -0.0859375 L 1.734375 0 M 1.039062 -0.707031 L 0.773438 -1.378906 L 0.515625 -0.707031 Z "/>
</g>
<g id="glyph-0-2">
<path d="M 1.71875 -1.644531 C 1.695312 -1.644531 1.671875 -1.640625 1.640625 -1.632812 C 1.609375 -1.621094 1.585938 -1.613281 1.566406 -1.601562 C 1.539062 -1.582031 1.515625 -1.5625 1.5 -1.535156 C 1.484375 -1.507812 1.464844 -1.476562 1.449219 -1.4375 C 1.394531 -1.308594 1.3125 -1.109375 1.203125 -0.835938 C 1.097656 -0.558594 0.984375 -0.273438 0.867188 0.0234375 L 0.765625 0.0234375 C 0.648438 -0.292969 0.535156 -0.597656 0.425781 -0.890625 C 0.316406 -1.179688 0.242188 -1.378906 0.203125 -1.480469 C 0.195312 -1.507812 0.183594 -1.527344 0.164062 -1.546875 C 0.148438 -1.566406 0.128906 -1.585938 0.101562 -1.601562 C 0.078125 -1.617188 0.0546875 -1.625 0.0273438 -1.632812 C 0 -1.640625 -0.0234375 -1.644531 -0.046875 -1.644531 L -0.046875 -1.730469 L 0.671875 -1.730469 L 0.671875 -1.644531 C 0.609375 -1.640625 0.558594 -1.636719 0.515625 -1.628906 C 0.472656 -1.617188 0.453125 -1.601562 0.453125 -1.578125 C 0.453125 -1.570312 0.453125 -1.558594 0.457031 -1.546875 C 0.460938 -1.535156 0.464844 -1.527344 0.464844 -1.519531 C 0.496094 -1.4375 0.546875 -1.308594 0.613281 -1.128906 C 0.679688 -0.949219 0.777344 -0.691406 0.902344 -0.359375 C 0.964844 -0.507812 1.035156 -0.6875 1.113281 -0.890625 C 1.195312 -1.097656 1.25 -1.238281 1.277344 -1.316406 C 1.304688 -1.390625 1.320312 -1.441406 1.324219 -1.46875 C 1.328125 -1.496094 1.332031 -1.519531 1.332031 -1.539062 C 1.332031 -1.558594 1.324219 -1.574219 1.304688 -1.585938 C 1.289062 -1.597656 1.265625 -1.609375 1.238281 -1.617188 C 1.210938 -1.625 1.183594 -1.632812 1.15625 -1.636719 C 1.128906 -1.640625 1.101562 -1.644531 1.074219 -1.644531 L 1.074219 -1.730469 L 1.71875 -1.730469 Z "/>
</g>
</g>
</defs>
<g fill="rgb(100%, 100%, 100%)" fill-opacity="1">
<use xlink:href="#glyph-0-0" x="30" y="22.292969"/>
<use xlink:href="#glyph-0-1" x="32" y="22.292969"/>
<use xlink:href="#glyph-0-2" x="34" y="22.292969"/>
</g>
</svg>
