<?xml version="1.0" encoding="UTF-8"?>
<svg xmlns="http://www.w3.org/2000/svg" xmlns:xlink="http://www.w3.org/1999/xlink" width="854" height="480" viewBox="0 0 854 480">
<defs>
<g>
<g id="glyph-0-0">
<path d="M 3.160156 -1.519531 C 3.160156 -1.257812 3.113281 -1.03125 3.015625 -0.839844 C 2.914062 -0.648438 2.789062 -0.488281 2.628906 -0.367188 C 2.472656 -0.242188 2.292969 -0.152344 2.09375 -0.0898438 C 1.894531 -0.03125 1.691406 0 1.480469 0 L 0.203125 0 L 0.203125 -0.152344 C 0.246094 -0.152344 0.300781 -0.15625 0.367188 -0.164062 C 0.433594 -0.175781 0.480469 -0.183594 0.5 -0.191406 C 0.542969 -0.210938 0.574219 -0.238281 0.59375 -0.277344 C 0.613281 -0.3125 0.625 -0.359375 0.625 -0.410156 L 0.625 -2.632812 C 0.625 -2.679688 0.617188 -2.726562 0.601562 -2.765625 C 0.582031 -2.804688 0.550781 -2.835938 0.5 -2.859375 C 0.457031 -2.878906 0.40625 -2.894531 0.355469 -2.90625 C 0.304688 -2.914062 0.257812 -2.921875 0.222656 -2.925781 L 0.222656 -3.078125 L 1.566406 -3.078125 C 1.75 -3.078125 1.933594 -3.050781 2.113281 -2.992188 C 2.292969 -2.9375 2.449219 -2.859375 2.582031 -2.761719 C 2.761719 -2.632812 2.90625 -2.464844 3.007812 -2.257812 C 3.109375 -2.046875 3.160156 -1.804688 3.160156 -1.519531 M 2.628906 -1.523438 C 2.628906 -1.730469 2.601562 -1.914062 2.546875 -2.082031 C 2.492188 -2.25 2.414062 -2.394531 2.304688 -2.519531 C 2.207031 -2.636719 2.085938 -2.730469 1.9375 -2.800781 C 1.792969 -2.867188 1.632812 -2.902344 1.453125 -2.902344 C 1.394531 -2.902344 1.328125 -2.898438 1.253906 -2.898438 C 1.179688 -2.894531 1.125 -2.894531 1.085938 -2.890625 L 1.085938 -0.527344 C 1.085938 -0.394531 1.125 -0.304688 1.203125 -0.253906 C 1.277344 -0.203125 1.398438 -0.179688 1.554688 -0.179688 C 1.738281 -0.179688 1.898438 -0.210938 2.039062 -0.277344 C 2.175781 -0.339844 2.285156 -0.429688 2.371094 -0.546875 C 2.460938 -0.667969 2.527344 -0.808594 2.566406 -0.96875 C 2.609375 -1.128906 2.628906 -1.3125 2.628906 -1.523438 Z "/>
</g>
<g id="glyph-0-1">
<path d="M 2.449219 -0.0390625 L 1.75 0.0078125 L 1.71875 -0.0234375 L 1.71875 -0.292969 L 1.707031 -0.292969 C 1.671875 -0.257812 1.632812 -0.21875 1.589844 -0.175781 C 1.546875 -0.136719 1.496094 -0.0976562 1.4375 -0.0664062 C 1.375 -0.0273438 1.3125 0.00390625 1.25 0.0234375 C 1.191406 0.0429688 1.105469 0.0546875 0.992188 0.0546875 C 0.804688 0.0546875 0.660156 -0.0078125 0.5625 -0.132812 C 0.460938 -0.253906 0.414062 -0.433594 0.414062 -0.667969 L 0.414062 -1.691406 C 0.414062 -1.746094 0.402344 -1.789062 0.382812 -1.824219 C 0.363281 -1.859375 0.335938 -1.890625 0.296875 -1.917969 C 0.269531 -1.933594 0.238281 -1.945312 0.199219 -1.953125 C 0.160156 -1.960938 0.117188 -1.96875 0.0742188 -1.96875 L 0.0742188 -2.113281 L 0.789062 -2.164062 L 0.820312 -2.136719 L 0.820312 -0.648438 C 0.820312 -0.492188 0.855469 -0.378906 0.925781 -0.300781 C 0.992188 -0.222656 1.078125 -0.183594 1.175781 -0.183594 C 1.253906 -0.183594 1.324219 -0.195312 1.386719 -0.21875 C 1.449219 -0.242188 1.5 -0.273438 1.542969 -0.304688 C 1.582031 -0.335938 1.617188 -0.367188 1.644531 -0.402344 C 1.675781 -0.4375 1.699219 -0.46875 1.714844 -0.496094 L 1.714844 -1.707031 C 1.714844 -1.753906 1.703125 -1.796875 1.683594 -1.835938 C 1.664062 -1.871094 1.636719 -1.902344 1.597656 -1.929688 C 1.574219 -1.945312 1.535156 -1.957031 1.484375 -1.960938 C 1.433594 -1.964844 1.375 -1.96875 1.3125 -1.96875 L 1.3125 -2.113281 L 2.089844 -2.164062 L 2.121094 -2.136719 L 2.121094 -0.4375 C 2.121094 -0.390625 2.132812 -0.347656 2.152344 -0.3125 C 2.171875 -0.277344 2.199219 -0.246094 2.238281 -0.222656 C 2.261719 -0.207031 2.292969 -0.195312 2.332031 -0.191406 C 2.367188 -0.1875 2.40625 -0.183594 2.449219 -0.183594 Z "/>
</g>
<g id="glyph-0-2">
<path d="M 3.816406 0 L 2.773438 0 L 2.773438 -0.144531 C 2.808594 -0.144531 2.84375 -0.148438 2.875 -0.152344 C 2.910156 -0.15625 2.941406 -0.160156 2.964844 -0.167969 C 3.007812 -0.183594 3.035156 -0.203125 3.054688 -0.238281 C 3.074219 -0.269531 3.085938 -0.3125 3.085938 -0.363281 L 3.085938 -1.46875 C 3.085938 -1.621094 3.050781 -1.734375 2.984375 -1.816406 C 2.914062 -1.898438 2.828125 -1.941406 2.726562 -1.941406 C 2.65625 -1.941406 2.589844 -1.929688 2.527344 -1.90625 C 2.464844 -1.886719 2.40625 -1.855469 2.355469 -1.816406 C 2.3125 -1.785156 2.277344 -1.75 2.25 -1.714844 C 2.222656 -1.675781 2.199219 -1.644531 2.183594 -1.621094 L 2.183594 -0.386719 C 2.183594 -0.335938 2.195312 -0.292969 2.210938 -0.261719 C 2.226562 -0.230469 2.257812 -0.203125 2.300781 -0.1875 C 2.332031 -0.171875 2.363281 -0.164062 2.390625 -0.15625 C 2.417969 -0.152344 2.453125 -0.144531 2.496094 -0.144531 L 2.496094 0 L 1.476562 0 L 1.476562 -0.144531 C 1.507812 -0.144531 1.539062 -0.148438 1.570312 -0.152344 C 1.601562 -0.15625 1.632812 -0.160156 1.65625 -0.167969 C 1.699219 -0.183594 1.726562 -0.203125 1.746094 -0.238281 C 1.765625 -0.269531 1.777344 -0.3125 1.777344 -0.363281 L 1.777344 -1.46875 C 1.777344 -1.621094 1.742188 -1.734375 1.675781 -1.816406 C 1.605469 -1.898438 1.519531 -1.941406 1.417969 -1.941406 C 1.34375 -1.941406 1.277344 -1.929688 1.214844 -1.90625 C 1.152344 -1.882812 1.097656 -1.851562 1.042969 -1.8125 C 1.003906 -1.78125 0.964844 -1.746094 0.9375 -1.707031 C 0.910156 -1.667969 0.886719 -1.636719 0.871094 -1.617188 L 0.871094 -0.390625 C 0.871094 -0.339844 0.882812 -0.300781 0.902344 -0.265625 C 0.921875 -0.234375 0.953125 -0.207031 0.992188 -0.191406 C 1.023438 -0.175781 1.054688 -0.164062 1.085938 -0.160156 C 1.117188 -0.152344 1.15625 -0.144531 1.195312 -0.144531 L 1.195312 0 L 0.152344 0 L 0.152344 -0.144531 C 0.1875 -0.144531 0.222656 -0.148438 0.257812 -0.152344 C 0.292969 -0.15625 0.324219 -0.160156 0.347656 -0.167969 C 0.390625 -0.183594 0.417969 -0.203125 0.4375 -0.238281 C 0.457031 -0.269531 0.46875 -0.3125 0.46875 -0.363281 L 0.46875 -1.691406 C 0.46875 -1.738281 0.457031 -1.78125 0.4375 -1.816406 C 0.417969 -1.855469 0.386719 -1.886719 0.347656 -1.910156 C 0.320312 -1.929688 0.289062 -1.941406 0.246094 -1.953125 C 0.207031 -1.964844 0.164062 -1.972656 0.121094 -1.976562 L 0.121094 -2.117188 L 0.835938 -2.164062 L 0.867188 -2.136719 L 0.867188 -1.828125 L 0.882812 -1.828125 C 0.917969 -1.867188 0.964844 -1.90625 1.015625 -1.957031 C 1.066406 -2.007812 1.117188 -2.046875 1.160156 -2.078125 C 1.210938 -2.113281 1.273438 -2.140625 1.351562 -2.164062 C 1.425781 -2.1875 1.507812 -2.199219 1.597656 -2.199219 C 1.734375 -2.199219 1.855469 -2.160156 1.957031 -2.085938 C 2.054688 -2.011719 2.125 -1.921875 2.171875 -1.816406 C 2.222656 -1.867188 2.269531 -1.910156 2.308594 -1.949219 C 2.347656 -1.988281 2.398438 -2.027344 2.464844 -2.074219 C 2.519531 -2.109375 2.585938 -2.140625 2.660156 -2.164062 C 2.734375 -2.1875 2.816406 -2.199219 2.90625 -2.199219 C 3.085938 -2.199219 3.230469 -2.140625 3.335938 -2.019531 C 3.441406 -1.902344 3.492188 -1.71875 3.492188 -1.472656 L 3.492188 -0.386719 C 3.492188 -0.335938 3.503906 -0.292969 3.519531 -0.261719 C 3.535156 -0.230469 3.566406 -0.203125 3.609375 -0.1875 C 3.640625 -0.171875 3.675781 -0.164062 3.707031 -0.15625 C 3.738281 -0.152344 3.777344 -0.144531 3.816406 -0.144531 Z "/>
</g>
<g id="glyph-0-3">
<path d="M -0.0078125 0.699219 C -0.0078125 0.625 0.0117188 0.566406 0.0546875 0.523438 C 0.09375 0.476562 0.140625 0.453125 0.203125 0.453125 C 0.246094 0.453125 0.289062 0.460938 0.320312 0.480469 C 0.355469 0.496094 0.382812 0.519531 0.410156 0.546875 C 0.433594 0.566406 0.453125 0.597656 0.480469 0.632812 C 0.503906 0.671875 0.523438 0.703125 0.539062 0.726562 C 0.609375 0.6875 0.695312 0.585938 0.796875 0.421875 C 0.898438 0.257812 0.96875 0.113281 1.015625 -0.0117188 C 0.878906 -0.355469 0.753906 -0.660156 0.640625 -0.929688 C 0.53125 -1.203125 0.414062 -1.480469 0.292969 -1.769531 C 0.265625 -1.835938 0.21875 -1.890625 0.152344 -1.925781 C 0.0898438 -1.960938 0.0234375 -1.984375 -0.0429688 -1.996094 L -0.0429688 -2.140625 L 0.9375 -2.140625 L 0.9375 -1.988281 C 0.890625 -1.984375 0.839844 -1.976562 0.78125 -1.960938 C 0.71875 -1.945312 0.6875 -1.925781 0.6875 -1.902344 C 0.6875 -1.894531 0.691406 -1.878906 0.699219 -1.859375 C 0.703125 -1.839844 0.710938 -1.820312 0.722656 -1.796875 C 0.777344 -1.652344 0.859375 -1.449219 0.972656 -1.179688 C 1.085938 -0.910156 1.171875 -0.691406 1.234375 -0.53125 C 1.300781 -0.683594 1.367188 -0.84375 1.4375 -1.011719 C 1.507812 -1.175781 1.585938 -1.371094 1.671875 -1.597656 C 1.683594 -1.625 1.695312 -1.664062 1.714844 -1.710938 C 1.734375 -1.757812 1.746094 -1.800781 1.746094 -1.835938 C 1.746094 -1.875 1.710938 -1.910156 1.644531 -1.941406 C 1.578125 -1.972656 1.515625 -1.992188 1.457031 -2 L 1.457031 -2.140625 L 2.253906 -2.140625 L 2.253906 -2.003906 C 2.210938 -1.996094 2.152344 -1.972656 2.082031 -1.929688 C 2.011719 -1.886719 1.957031 -1.828125 1.921875 -1.75 C 1.75 -1.351562 1.597656 -0.984375 1.464844 -0.65625 C 1.328125 -0.328125 1.226562 -0.0859375 1.160156 0.0664062 C 1.066406 0.269531 0.984375 0.429688 0.914062 0.542969 C 0.84375 0.65625 0.773438 0.746094 0.707031 0.808594 C 0.640625 0.871094 0.578125 0.910156 0.523438 0.933594 C 0.46875 0.953125 0.414062 0.964844 0.355469 0.964844 C 0.242188 0.964844 0.15625 0.9375 0.0898438 0.882812 C 0.0273438 0.828125 -0.0078125 0.769531 -0.0078125 0.699219 Z "/>
</g>
<g id="glyph-0-4">
</g>
<g id="glyph-1-0">
<path d="M 1.753906 0 L 0.292969 0 L 0.292969 -0.152344 C 0.335938 -0.15625 0.402344 -0.164062 0.496094 -0.171875 C 0.585938 -0.183594 0.652344 -0.191406 0.6875 -0.203125 C 0.730469 -0.214844 0.765625 -0.238281 0.789062 -0.273438 C 0.8125 -0.304688 0.824219 -0.355469 0.824219 -0.417969 L 0.824219 -1.941406 L 0.285156 -1.941406 L 0.285156 -2.125 L 0.402344 -2.125 C 0.558594 -2.125 0.699219 -2.152344 0.824219 -2.210938 C 0.945312 -2.269531 1.035156 -2.332031 1.089844 -2.398438 L 1.269531 -2.398438 C 1.265625 -2.304688 1.261719 -2.195312 1.257812 -2.066406 C 1.253906 -1.941406 1.25 -1.828125 1.25 -1.730469 L 1.25 -0.441406 C 1.25 -0.390625 1.261719 -0.347656 1.285156 -0.308594 C 1.304688 -0.265625 1.339844 -0.238281 1.378906 -0.21875 C 1.417969 -0.203125 1.480469 -0.1875 1.566406 -0.175781 C 1.648438 -0.164062 1.714844 -0.15625 1.753906 -0.152344 Z "/>
</g>
<g id="glyph-1-1">
<path d="M 0.902344 -0.25 C 0.902344 -0.167969 0.871094 -0.0976562 0.8125 -0.0429688 C 0.753906 0.015625 0.683594 0.0429688 0.601562 0.0429688 C 0.523438 0.0429688 0.453125 0.015625 0.394531 -0.0429688 C 0.335938 -0.0976562 0.304688 -0.167969 0.304688 -0.25 C 0.304688 -0.332031 0.335938 -0.398438 0.394531 -0.457031 C 0.453125 -0.515625 0.523438 -0.546875 0.601562 -0.546875 C 0.683594 -0.546875 0.753906 -0.515625 0.8125 -0.457031 C 0.871094 -0.398438 0.902344 -0.332031 0.902344 -0.25 Z "/>
</g>
<g id="glyph-1-2">
<path d="M 2.421875 -0.816406 C 2.421875 -0.574219 2.320312 -0.363281 2.109375 -0.1875 C 1.898438 -0.015625 1.625 0.0742188 1.28125 0.0742188 C 0.960938 0.0742188 0.707031 -0.0078125 0.515625 -0.167969 C 0.320312 -0.328125 0.226562 -0.535156 0.226562 -0.789062 C 0.226562 -0.972656 0.28125 -1.128906 0.394531 -1.253906 C 0.507812 -1.378906 0.679688 -1.488281 0.902344 -1.574219 C 0.71875 -1.675781 0.578125 -1.789062 0.488281 -1.910156 C 0.398438 -2.035156 0.351562 -2.171875 0.351562 -2.328125 C 0.351562 -2.5625 0.453125 -2.761719 0.652344 -2.921875 C 0.851562 -3.078125 1.09375 -3.160156 1.371094 -3.160156 C 1.652344 -3.160156 1.875 -3.085938 2.050781 -2.933594 C 2.222656 -2.785156 2.308594 -2.59375 2.308594 -2.367188 C 2.308594 -2.222656 2.261719 -2.082031 2.164062 -1.953125 C 2.070312 -1.820312 1.929688 -1.714844 1.746094 -1.628906 C 1.984375 -1.527344 2.15625 -1.414062 2.265625 -1.289062 C 2.371094 -1.164062 2.421875 -1.007812 2.421875 -0.816406 M 1.898438 -2.390625 C 1.898438 -2.566406 1.847656 -2.710938 1.742188 -2.820312 C 1.636719 -2.933594 1.503906 -2.988281 1.339844 -2.988281 C 1.175781 -2.988281 1.042969 -2.933594 0.9375 -2.828125 C 0.832031 -2.722656 0.78125 -2.589844 0.78125 -2.433594 C 0.78125 -2.28125 0.839844 -2.152344 0.960938 -2.046875 C 1.078125 -1.941406 1.289062 -1.828125 1.59375 -1.707031 C 1.703125 -1.777344 1.78125 -1.867188 1.828125 -1.984375 C 1.875 -2.097656 1.898438 -2.234375 1.898438 -2.390625 M 1.988281 -0.714844 C 1.988281 -0.804688 1.96875 -0.886719 1.929688 -0.953125 C 1.890625 -1.023438 1.835938 -1.085938 1.761719 -1.140625 C 1.691406 -1.195312 1.59375 -1.253906 1.464844 -1.3125 C 1.339844 -1.375 1.203125 -1.433594 1.054688 -1.496094 C 0.914062 -1.421875 0.8125 -1.328125 0.75 -1.210938 C 0.683594 -1.09375 0.652344 -0.960938 0.652344 -0.8125 C 0.652344 -0.597656 0.714844 -0.425781 0.839844 -0.296875 C 0.964844 -0.164062 1.128906 -0.101562 1.339844 -0.101562 C 1.539062 -0.101562 1.695312 -0.15625 1.8125 -0.273438 C 1.929688 -0.390625 1.988281 -0.535156 1.988281 -0.714844 Z "/>
</g>
<g id="glyph-1-3">
</g>
<g id="glyph-1-4">
<path d="M 3.816406 0 L 2.773438 0 L 2.773438 -0.144531 C 2.808594 -0.144531 2.84375 -0.148438 2.875 -0.152344 C 2.910156 -0.15625 2.941406 -0.160156 2.964844 -0.167969 C 3.007812 -0.183594 3.035156 -0.203125 3.054688 -0.238281 C 3.074219 -0.269531 3.085938 -0.3125 3.085938 -0.363281 L 3.085938 -1.46875 C 3.085938 -1.621094 3.050781 -1.734375 2.984375 -1.816406 C 2.914062 -1.898438 2.828125 -1.941406 2.726562 -1.941406 C 2.65625 -1.941406 2.589844 -1.929688 2.527344 -1.90625 C 2.464844 -1.886719 2.40625 -1.855469 2.355469 -1.816406 C 2.3125 -1.785156 2.277344 -1.75 2.25 -1.714844 C 2.222656 -1.675781 2.199219 -1.644531 2.183594 -1.621094 L 2.183594 -0.386719 C 2.183594 -0.335938 2.195312 -0.292969 2.210938 -0.261719 C 2.226562 -0.230469 2.257812 -0.203125 2.300781 -0.1875 C 2.332031 -0.171875 2.363281 -0.164062 2.390625 -0.15625 C 2.417969 -0.152344 2.453125 -0.144531 2.496094 -0.144531 L 2.496094 0 L 1.476562 0 L 1.476562 -0.144531 C 1.507812 -0.144531 1.539062 -0.148438 1.570312 -0.152344 C 1.601562 -0.15625 1.632812 -0.160156 1.65625 -0.167969 C 1.699219 -0.183594 1.726562 -0.203125 1.746094 -0.238281 C 1.765625 -0.269531 1.777344 -0.3125 1.777344 -0.363281 L 1.777344 -1.46875 C 1.777344 -1.621094 1.742188 -1.734375 1.675781 -1.816406 C 1.605469 -1.898438 1.519531 -1.941406 1.417969 -1.941406 C 1.34375 -1.941406 1.277344 -1.929688 1.214844 -1.90625 C 1.152344 -1.882812 1.097656 -1.851562 1.042969 -1.8125 C 1.003906 -1.78125 0.964844 -1.746094 0.9375 -1.707031 C 0.910156 -1.667969 0.886719 -1.636719 0.871094 -1.617188 L 0.871094 -0.390625 C 0.871094 -0.339844 0.882812 -0.300781 0.902344 -0.265625 C 0.921875 -0.234375 0.953125 -0.207031 0.992188 -0.191406 C 1.023438 -0.175781 1.054688 -0.164062 1.085938 -0.160156 C 1.117188 -0.152344 1.15625 -0.144531 1.195312 -0.144531 L 1.195312 0 L 0.152344 0 L 0.152344 -0.144531 C 0.1875 -0.144531 0.222656 -0.148438 0.257812 -0.152344 C 0.292969 -0.15625 0.324219 -0.160156 0.347656 -0.167969 C 0.390625 -0.183594 0.417969 -0.203125 0.4375 -0.238281 C 0.457031 -0.269531 0.46875 -0.3125 0.46875 -0.363281 L 0.46875 -1.691406 C 0.46875 -1.738281 0.457031 -1.78125 0.4375 -1.816406 C 0.417969 -1.855469 0.386719 -1.886719 0.347656 -1.910156 C 0.320312 -1.929688 0.289062 -1.941406 0.246094 -1.953125 C 0.207031 -1.964844 0.164062 -1.972656 0.121094 -1.976562 L 0.121094 -2.117188 L 0.835938 -2.164062 L 0.867188 -2.136719 L 0.867188 -1.828125 L 0.882812 -1.828125 C 0.917969 -1.867188 0.964844 -1.90625 1.015625 -1.957031 C 1.066406 -2.007812 1.117188 -2.046875 1.160156 -2.078125 C 1.210938 -2.113281 1.273438 -2.140625 1.351562 -2.164062 C 1.425781 -2.1875 1.507812 -2.199219 1.597656 -2.199219 C 1.734375 -2.199219 1.855469 -2.160156 1.957031 -2.085938 C 2.054688 -2.011719 2.125 -1.921875 2.171875 -1.816406 C 2.222656 -1.867188 2.269531 -1.910156 2.308594 -1.949219 C 2.347656 -1.988281 2.398438 -2.027344 2.464844 -2.074219 C 2.519531 -2.109375 2.585938 -2.140625 2.660156 -2.164062 C 2.734375 -2.1875 2.816406 -2.199219 2.90625 -2.199219 C 3.085938 -2.199219 3.230469 -2.140625 3.335938 -2.019531 C 3.441406 -1.902344 3.492188 -1.71875 3.492188 -1.472656 L 3.492188 -0.386719 C 3.492188 -0.335938 3.503906 -0.292969 3.519531 -0.261719 C 3.535156 -0.230469 3.566406 -0.203125 3.609375 -0.1875 C 3.640625 -0.171875 3.675781 -0.164062 3.707031 -0.15625 C 3.738281 -0.152344 3.777344 -0.144531 3.816406 -0.144531 Z "/>
</g>
</g>
</defs>
<g fill="rgb(100%, 52.54902%, 18.431373%)" fill-opacity="1">
<use xlink:href="#glyph-0-0" x="30" y="24.074219"/>
<use xlink:href="#glyph-0-1" x="33" y="24.074219"/>
<use xlink:href="#glyph-0-2" x="36" y="24.074219"/>
<use xlink:href="#glyph-0-2" x="40" y="24.074219"/>
<use xlink:href="#glyph-0-3" x="44" y="24.074219"/>
<use xlink:href="#glyph-0-4" x="46" y="24.074219"/>
</g>
<g fill="rgb(100%, 52.54902%, 18.431373%)" fill-opacity="1">
<use xlink:href="#glyph-1-0" x="30" y="28.40625"/>
<use xlink:href="#glyph-1-1" x="32" y="28.40625"/>
<use xlink:href="#glyph-1-2" x="33" y="28.40625"/>
<use xlink:href="#glyph-1-3" x="36" y="28.40625"/>
<use xlink:href="#glyph-1-4" x="37" y="28.40625"/>
</g>
</svg>
