<?xml version="1.0" encoding="UTF-8"?>
<svg xmlns="http://www.w3.org/2000/svg" xmlns:xlink="http://www.w3.org/1999/xlink" width="854" height="480" viewBox="0 0 854 480">
<defs>
<g>
<g id="glyph-0-0">
<path d="M 2.378906 -1.964844 L 2.246094 -1.964844 C 2.234375 -2.007812 2.214844 -2.0625 2.183594 -2.125 C 2.15625 -2.1875 2.121094 -2.246094 2.085938 -2.304688 C 2.046875 -2.363281 2.003906 -2.414062 1.960938 -2.457031 C 1.914062 -2.5 1.871094 -2.523438 1.828125 -2.53125 C 1.789062 -2.535156 1.742188 -2.539062 1.679688 -2.542969 C 1.621094 -2.546875 1.566406 -2.546875 1.515625 -2.546875 L 1.40625 -2.546875 L 1.40625 -0.390625 C 1.40625 -0.347656 1.414062 -0.3125 1.433594 -0.277344 C 1.449219 -0.242188 1.480469 -0.214844 1.523438 -0.195312 C 1.546875 -0.1875 1.59375 -0.175781 1.667969 -0.160156 C 1.742188 -0.144531 1.796875 -0.136719 1.839844 -0.136719 L 1.839844 0 L 0.566406 0 L 0.566406 -0.136719 C 0.601562 -0.136719 0.65625 -0.140625 0.726562 -0.148438 C 0.800781 -0.15625 0.851562 -0.167969 0.878906 -0.179688 C 0.921875 -0.195312 0.953125 -0.21875 0.972656 -0.25 C 0.992188 -0.28125 1 -0.320312 1 -0.375 L 1 -2.546875 L 0.890625 -2.546875 C 0.851562 -2.546875 0.800781 -2.546875 0.746094 -2.542969 C 0.6875 -2.542969 0.628906 -2.539062 0.578125 -2.53125 C 0.535156 -2.527344 0.492188 -2.5 0.445312 -2.457031 C 0.402344 -2.410156 0.359375 -2.359375 0.324219 -2.304688 C 0.285156 -2.246094 0.25 -2.1875 0.222656 -2.121094 C 0.191406 -2.058594 0.171875 -2.003906 0.160156 -1.964844 L 0.0273438 -1.964844 L 0.0273438 -2.695312 L 2.378906 -2.695312 Z "/>
</g>
<g id="glyph-0-1">
<path d="M 2.699219 0 L 1.578125 0 L 1.578125 -0.136719 C 1.675781 -0.140625 1.757812 -0.152344 1.824219 -0.171875 C 1.890625 -0.191406 1.921875 -0.214844 1.921875 -0.242188 C 1.921875 -0.253906 1.921875 -0.269531 1.917969 -0.285156 C 1.914062 -0.300781 1.910156 -0.316406 1.90625 -0.328125 L 1.683594 -0.933594 L 0.738281 -0.933594 C 0.703125 -0.84375 0.671875 -0.765625 0.652344 -0.699219 C 0.628906 -0.636719 0.609375 -0.574219 0.589844 -0.519531 C 0.574219 -0.464844 0.5625 -0.417969 0.558594 -0.386719 C 0.550781 -0.351562 0.546875 -0.324219 0.546875 -0.300781 C 0.546875 -0.25 0.585938 -0.210938 0.667969 -0.183594 C 0.746094 -0.15625 0.835938 -0.140625 0.9375 -0.136719 L 0.9375 0 L -0.078125 0 L -0.078125 -0.136719 C -0.046875 -0.136719 -0.00390625 -0.144531 0.046875 -0.15625 C 0.09375 -0.167969 0.136719 -0.183594 0.167969 -0.207031 C 0.21875 -0.238281 0.257812 -0.273438 0.285156 -0.3125 C 0.3125 -0.351562 0.339844 -0.402344 0.367188 -0.46875 C 0.503906 -0.804688 0.652344 -1.183594 0.816406 -1.605469 C 0.976562 -2.027344 1.125 -2.402344 1.25 -2.734375 L 1.402344 -2.734375 L 2.300781 -0.410156 C 2.320312 -0.359375 2.34375 -0.320312 2.367188 -0.289062 C 2.390625 -0.257812 2.425781 -0.230469 2.46875 -0.199219 C 2.496094 -0.183594 2.535156 -0.167969 2.582031 -0.15625 C 2.628906 -0.144531 2.667969 -0.136719 2.699219 -0.136719 L 2.699219 0 M 1.613281 -1.101562 L 1.207031 -2.148438 L 0.804688 -1.101562 Z "/>
</g>
<g id="glyph-0-2">
<path d="M 2.800781 0 L 2.046875 0 C 1.898438 -0.226562 1.738281 -0.449219 1.558594 -0.671875 C 1.382812 -0.894531 1.195312 -1.109375 1 -1.316406 L 0.953125 -1.316406 L 0.953125 -0.378906 C 0.953125 -0.339844 0.960938 -0.300781 0.976562 -0.269531 C 0.992188 -0.234375 1.019531 -0.207031 1.0625 -0.1875 C 1.082031 -0.179688 1.121094 -0.167969 1.175781 -0.15625 C 1.230469 -0.144531 1.277344 -0.136719 1.3125 -0.136719 L 1.3125 0 L 0.195312 0 L 0.195312 -0.136719 C 0.222656 -0.136719 0.265625 -0.140625 0.320312 -0.144531 C 0.375 -0.152344 0.414062 -0.160156 0.4375 -0.167969 C 0.476562 -0.183594 0.503906 -0.210938 0.519531 -0.242188 C 0.539062 -0.273438 0.546875 -0.3125 0.546875 -0.359375 L 0.546875 -2.304688 C 0.546875 -2.347656 0.539062 -2.382812 0.523438 -2.414062 C 0.511719 -2.449219 0.480469 -2.472656 0.4375 -2.492188 C 0.40625 -2.511719 0.363281 -2.523438 0.316406 -2.539062 C 0.269531 -2.550781 0.230469 -2.558594 0.195312 -2.558594 L 0.195312 -2.695312 L 1.3125 -2.695312 L 1.3125 -2.558594 C 1.277344 -2.558594 1.234375 -2.554688 1.179688 -2.542969 C 1.125 -2.53125 1.085938 -2.523438 1.0625 -2.515625 C 1.019531 -2.5 0.988281 -2.472656 0.972656 -2.4375 C 0.960938 -2.402344 0.953125 -2.363281 0.953125 -2.324219 L 0.953125 -1.390625 L 0.988281 -1.390625 C 1.101562 -1.488281 1.214844 -1.589844 1.324219 -1.691406 C 1.4375 -1.796875 1.535156 -1.902344 1.625 -2.003906 C 1.726562 -2.121094 1.796875 -2.210938 1.84375 -2.28125 C 1.890625 -2.351562 1.914062 -2.410156 1.914062 -2.464844 C 1.914062 -2.484375 1.902344 -2.5 1.878906 -2.511719 C 1.855469 -2.523438 1.828125 -2.535156 1.796875 -2.539062 C 1.761719 -2.546875 1.730469 -2.554688 1.703125 -2.554688 C 1.675781 -2.558594 1.652344 -2.558594 1.636719 -2.558594 L 1.636719 -2.695312 L 2.644531 -2.695312 L 2.644531 -2.558594 C 2.640625 -2.558594 2.632812 -2.558594 2.621094 -2.558594 C 2.609375 -2.558594 2.59375 -2.554688 2.578125 -2.554688 C 2.558594 -2.554688 2.542969 -2.550781 2.523438 -2.546875 C 2.507812 -2.542969 2.484375 -2.539062 2.457031 -2.535156 C 2.410156 -2.523438 2.367188 -2.507812 2.316406 -2.484375 C 2.269531 -2.460938 2.230469 -2.433594 2.203125 -2.402344 C 2.070312 -2.253906 1.933594 -2.101562 1.792969 -1.941406 C 1.652344 -1.785156 1.511719 -1.640625 1.371094 -1.507812 C 1.566406 -1.292969 1.726562 -1.105469 1.851562 -0.949219 C 1.976562 -0.789062 2.109375 -0.621094 2.253906 -0.445312 C 2.308594 -0.375 2.359375 -0.320312 2.414062 -0.28125 C 2.46875 -0.238281 2.515625 -0.207031 2.554688 -0.1875 C 2.589844 -0.171875 2.628906 -0.160156 2.679688 -0.148438 C 2.726562 -0.140625 2.769531 -0.136719 2.800781 -0.136719 Z "/>
</g>
<g id="glyph-0-3">
<path d="M 2.453125 -0.792969 L 2.402344 0 L 0.164062 0 L 0.164062 -0.136719 C 0.203125 -0.136719 0.25 -0.144531 0.316406 -0.152344 C 0.378906 -0.160156 0.417969 -0.167969 0.4375 -0.175781 C 0.480469 -0.195312 0.507812 -0.21875 0.523438 -0.25 C 0.539062 -0.28125 0.546875 -0.320312 0.546875 -0.367188 L 0.546875 -2.304688 C 0.546875 -2.34375 0.539062 -2.382812 0.527344 -2.414062 C 0.511719 -2.445312 0.484375 -2.472656 0.4375 -2.492188 C 0.40625 -2.511719 0.359375 -2.523438 0.300781 -2.539062 C 0.242188 -2.550781 0.199219 -2.558594 0.164062 -2.558594 L 0.164062 -2.695312 L 2.25 -2.695312 L 2.25 -2.046875 L 2.105469 -2.046875 C 2.082031 -2.140625 2.027344 -2.242188 1.941406 -2.351562 C 1.859375 -2.460938 1.777344 -2.519531 1.703125 -2.53125 C 1.664062 -2.535156 1.617188 -2.539062 1.5625 -2.539062 C 1.507812 -2.542969 1.445312 -2.542969 1.375 -2.542969 L 0.953125 -2.542969 L 0.953125 -1.472656 L 1.253906 -1.472656 C 1.351562 -1.472656 1.425781 -1.484375 1.46875 -1.5 C 1.515625 -1.519531 1.554688 -1.550781 1.585938 -1.59375 C 1.617188 -1.628906 1.640625 -1.679688 1.660156 -1.742188 C 1.679688 -1.800781 1.691406 -1.859375 1.699219 -1.914062 L 1.839844 -1.914062 L 1.839844 -0.859375 L 1.699219 -0.859375 C 1.691406 -0.917969 1.679688 -0.984375 1.65625 -1.050781 C 1.636719 -1.117188 1.613281 -1.167969 1.585938 -1.199219 C 1.546875 -1.246094 1.503906 -1.28125 1.453125 -1.296875 C 1.402344 -1.308594 1.335938 -1.316406 1.253906 -1.316406 L 0.953125 -1.316406 L 0.953125 -0.511719 C 0.953125 -0.429688 0.957031 -0.367188 0.96875 -0.320312 C 0.980469 -0.273438 1.003906 -0.238281 1.035156 -0.210938 C 1.066406 -0.1875 1.113281 -0.171875 1.167969 -0.167969 C 1.226562 -0.160156 1.308594 -0.15625 1.414062 -0.15625 C 1.453125 -0.15625 1.511719 -0.15625 1.578125 -0.15625 C 1.648438 -0.15625 1.703125 -0.160156 1.75 -0.164062 C 1.800781 -0.167969 1.847656 -0.175781 1.898438 -0.191406 C 1.953125 -0.203125 1.988281 -0.222656 2.007812 -0.246094 C 2.066406 -0.304688 2.128906 -0.398438 2.191406 -0.519531 C 2.257812 -0.644531 2.296875 -0.734375 2.316406 -0.792969 Z "/>
</g>
<g id="glyph-0-4">
<path d="M 2.363281 -2.375 C 2.480469 -2.25 2.574219 -2.101562 2.640625 -1.925781 C 2.707031 -1.75 2.742188 -1.558594 2.742188 -1.34375 C 2.742188 -1.128906 2.707031 -0.9375 2.640625 -0.761719 C 2.570312 -0.585938 2.476562 -0.4375 2.355469 -0.316406 C 2.238281 -0.195312 2.101562 -0.101562 1.945312 -0.0351562 C 1.789062 0.03125 1.625 0.0664062 1.445312 0.0664062 C 1.257812 0.0664062 1.085938 0.03125 0.925781 -0.0390625 C 0.769531 -0.109375 0.632812 -0.207031 0.519531 -0.335938 C 0.40625 -0.457031 0.316406 -0.605469 0.25 -0.78125 C 0.183594 -0.957031 0.152344 -1.144531 0.152344 -1.34375 C 0.152344 -1.5625 0.1875 -1.757812 0.253906 -1.929688 C 0.324219 -2.101562 0.417969 -2.25 0.539062 -2.375 C 0.65625 -2.5 0.792969 -2.59375 0.953125 -2.660156 C 1.109375 -2.726562 1.273438 -2.757812 1.445312 -2.757812 C 1.625 -2.757812 1.792969 -2.726562 1.953125 -2.660156 C 2.109375 -2.589844 2.246094 -2.496094 2.363281 -2.375 M 2.078125 -0.464844 C 2.152344 -0.582031 2.203125 -0.710938 2.234375 -0.855469 C 2.265625 -1.003906 2.28125 -1.164062 2.28125 -1.34375 C 2.28125 -1.53125 2.265625 -1.699219 2.230469 -1.851562 C 2.191406 -2.007812 2.140625 -2.140625 2.070312 -2.25 C 2 -2.355469 1.914062 -2.441406 1.808594 -2.5 C 1.703125 -2.558594 1.582031 -2.589844 1.445312 -2.589844 C 1.296875 -2.589844 1.167969 -2.554688 1.058594 -2.484375 C 0.953125 -2.417969 0.867188 -2.324219 0.800781 -2.207031 C 0.734375 -2.09375 0.6875 -1.964844 0.65625 -1.816406 C 0.628906 -1.667969 0.613281 -1.507812 0.613281 -1.34375 C 0.613281 -1.164062 0.628906 -0.996094 0.660156 -0.851562 C 0.695312 -0.703125 0.746094 -0.574219 0.816406 -0.460938 C 0.886719 -0.347656 0.972656 -0.261719 1.074219 -0.199219 C 1.179688 -0.136719 1.304688 -0.105469 1.445312 -0.105469 C 1.582031 -0.105469 1.703125 -0.136719 1.8125 -0.199219 C 1.921875 -0.261719 2.011719 -0.351562 2.078125 -0.464844 Z "/>
</g>
<g id="glyph-0-5">
<path d="M 2.277344 -2.019531 L 2.132812 -2.019531 C 2.109375 -2.121094 2.050781 -2.226562 1.96875 -2.339844 C 1.882812 -2.457031 1.804688 -2.519531 1.726562 -2.53125 C 1.6875 -2.535156 1.640625 -2.539062 1.585938 -2.539062 C 1.53125 -2.542969 1.472656 -2.542969 1.402344 -2.542969 L 0.953125 -2.542969 L 0.953125 -1.460938 L 1.261719 -1.460938 C 1.355469 -1.460938 1.429688 -1.472656 1.480469 -1.492188 C 1.53125 -1.511719 1.578125 -1.542969 1.613281 -1.582031 C 1.640625 -1.609375 1.664062 -1.652344 1.683594 -1.710938 C 1.703125 -1.769531 1.71875 -1.832031 1.722656 -1.902344 L 1.867188 -1.902344 L 1.867188 -0.839844 L 1.722656 -0.839844 C 1.71875 -0.898438 1.707031 -0.960938 1.683594 -1.03125 C 1.664062 -1.101562 1.640625 -1.152344 1.613281 -1.183594 C 1.574219 -1.230469 1.527344 -1.265625 1.46875 -1.28125 C 1.414062 -1.296875 1.34375 -1.304688 1.261719 -1.304688 L 0.953125 -1.304688 L 0.953125 -0.378906 C 0.953125 -0.335938 0.960938 -0.300781 0.976562 -0.265625 C 0.992188 -0.234375 1.023438 -0.207031 1.0625 -0.1875 C 1.082031 -0.179688 1.125 -0.167969 1.1875 -0.15625 C 1.25 -0.144531 1.296875 -0.136719 1.332031 -0.136719 L 1.332031 0 L 0.164062 0 L 0.164062 -0.136719 C 0.203125 -0.136719 0.25 -0.140625 0.316406 -0.148438 C 0.378906 -0.152344 0.417969 -0.160156 0.4375 -0.167969 C 0.476562 -0.183594 0.503906 -0.210938 0.519531 -0.242188 C 0.539062 -0.273438 0.546875 -0.3125 0.546875 -0.359375 L 0.546875 -2.304688 C 0.546875 -2.34375 0.539062 -2.382812 0.527344 -2.414062 C 0.511719 -2.445312 0.484375 -2.472656 0.4375 -2.492188 C 0.40625 -2.511719 0.359375 -2.523438 0.300781 -2.539062 C 0.242188 -2.550781 0.199219 -2.558594 0.164062 -2.558594 L 0.164062 -2.695312 L 2.277344 -2.695312 Z "/>
</g>
</g>
</defs>
<g fill="rgb(96.862745%, 85.098039%, 43.529412%)" fill-opacity="1">
<use xlink:href="#glyph-0-0" x="30" y="23.56543"/>
<use xlink:href="#glyph-0-1" x="32" y="23.56543"/>
<use xlink:href="#glyph-0-2" x="35" y="23.56543"/>
<use xlink:href="#glyph-0-3" x="38" y="23.56543"/>
<use xlink:href="#glyph-0-4" x="41" y="23.56543"/>
<use xlink:href="#glyph-0-5" x="44" y="23.56543"/>
<use xlink:href="#glyph-0-5" x="46" y="23.56543"/>
</g>
</svg>
